<?xml version="1.0" encoding="utf-8"?>
<COLLADA xmlns="http://www.collada.org/2005/11/COLLADASchema" version="1.4.1" xmlns:xsi="http://www.w3.org/2001/XMLSchema-instance">
  <asset>
    <contributor>
      <author>Blender User</author>
      <authoring_tool>Blender 4.5.2 LTS commit date:2025-08-19, commit time:15:00, hash:ab25eae04993</authoring_tool>
    </contributor>
    <created>2026-08-07T21:23:28</created>
    <modified>2026-08-07T21:23:28</modified>
    <unit name="meter" meter="1"/>
    <up_axis>Z_UP</up_axis>
  </asset>
  <library_effects>
    <effect id="Material_001-effect">
      <profile_COMMON>
        <technique sid="common">
          <lambert>
            <emission>
              <color sid="emission">0 0 0 1</color>
            </emission>
            <diffuse>
              <color sid="diffuse">0 0 0 1</color>
            </diffuse>
            <index_of_refraction>
              <float sid="ior">1.5</float>
            </index_of_refraction>
          </lambert>
        </technique>
      </profile_COMMON>
    </effect>
    <effect id="Material_004-effect">
      <profile_COMMON>
        <technique sid="common">
          <lambert>
            <emission>
              <color sid="emission">0 0 0 1</color>
            </emission>
            <diffuse>
              <color sid="diffuse">0.003345694 0.7011029 0.08228286 1</color>
            </diffuse>
            <index_of_refraction>
              <float sid="ior">1.5</float>
            </index_of_refraction>
          </lambert>
        </technique>
      </profile_COMMON>
    </effect>
  </library_effects>
  <library_images/>
  <library_materials>
    <material id="Material_001-material" name="Material.001">
      <instance_effect url="#Material_001-effect"/>
    </material>
    <material id="Material_004-material" name="Material.004">
      <instance_effect url="#Material_004-effect"/>
    </material>
  </library_materials>
  <library_geometries>
    <geometry id="Cube_001-mesh" name="Cube.001">
      <mesh>
        <source id="Cube_001-mesh-positions">
          <float_array id="Cube_001-mesh-positions-array" count="36">-0.05079996 0.05079996 0.0381 -0.05079996 0.05079996 -0.03809994 -0.05079996 -0.05079996 0.03809994 -0.05079996 -0.05079996 -0.0381 0.05079996 0.05079996 0.0381 0.05079996 0.05079996 -0.03809994 0.05079996 -0.05079996 0.03809994 0.05079996 -0.05079996 -0.0381 -0.0328592 -0.03285926 0.03809994 -0.0328592 0.0328592 0.0381 0.03285926 -0.03285926 0.03809994 0.03285926 0.0328592 0.0381</float_array>
          <technique_common>
            <accessor source="#Cube_001-mesh-positions-array" count="12" stride="3">
              <param name="X" type="float"/>
              <param name="Y" type="float"/>
              <param name="Z" type="float"/>
            </accessor>
          </technique_common>
        </source>
        <source id="Cube_001-mesh-normals">
          <float_array id="Cube_001-mesh-normals-array" count="60">-1 0 0 0 -1 0 1 0 0 0 1 0 0 0 1 0 0 -1 0 0 1 0 0 1 0 0 1 0 0 1 -1 0 0 0 -1 0 1 0 0 0 1 0 0 0 1 0 0 -1 0 0 1 0 0 1 0 0 1 0 0 1</float_array>
          <technique_common>
            <accessor source="#Cube_001-mesh-normals-array" count="20" stride="3">
              <param name="X" type="float"/>
              <param name="Y" type="float"/>
              <param name="Z" type="float"/>
            </accessor>
          </technique_common>
        </source>
        <source id="Cube_001-mesh-map">
          <float_array id="Cube_001-mesh-map-array" count="120">0.4 0.4 0.7 0 0.7 0.4 0.4 0.8 0.7000001 0.4 0.7 0.8 1 0.4 0.7000001 0 1 0 0.7000001 0.8 1 0.4 1 0.8 0.4 0 0.07063281 0.07063281 0 0 0.4 0.8000001 0 0.4 0.4 0.4 0.3293671 0.3293672 0.07063281 0.07063281 0.3293672 0.07063287 0.4 0.4 0.07063281 0.3293671 0.3293671 0.3293672 0 0 0.07063281 0.3293671 0 0.4 0.4 0.4 0.3293672 0.07063287 0.4 0 0.4 0.4 0.4 0 0.7 0 0.4 0.8 0.4 0.4 0.7000001 0.4 1 0.4 0.7 0.4 0.7000001 0 0.7000001 0.8 0.7000001 0.4 1 0.4 0.4 0 0.3293672 0.07063287 0.07063281 0.07063281 0.4 0.8000001 0 0.8 0 0.4 0.3293671 0.3293672 0.07063281 0.3293671 0.07063281 0.07063281 0.4 0.4 0 0.4 0.07063281 0.3293671 0 0 0.07063281 0.07063281 0.07063281 0.3293671 0.4 0.4 0.3293671 0.3293672 0.3293672 0.07063287</float_array>
          <technique_common>
            <accessor source="#Cube_001-mesh-map-array" count="60" stride="2">
              <param name="S" type="float"/>
              <param name="T" type="float"/>
            </accessor>
          </technique_common>
        </source>
        <vertices id="Cube_001-mesh-vertices">
          <input semantic="POSITION" source="#Cube_001-mesh-positions"/>
        </vertices>
        <triangles material="Material_001-material" count="18">
          <input semantic="VERTEX" source="#Cube_001-mesh-vertices" offset="0"/>
          <input semantic="NORMAL" source="#Cube_001-mesh-normals" offset="1"/>
          <input semantic="TEXCOORD" source="#Cube_001-mesh-map" offset="2" set="0"/>
          <p>1 0 0 2 0 1 0 0 2 3 1 3 6 1 4 2 1 5 6 2 6 5 2 7 4 2 8 5 3 9 0 3 10 4 3 11 2 4 12 9 4 13 0 4 14 3 5 15 5 5 16 7 5 17 6 7 21 11 7 22 10 7 23 0 8 24 11 8 25 4 8 26 6 9 27 8 9 28 2 9 29 1 10 30 3 10 31 2 10 32 3 11 33 7 11 34 6 11 35 6 12 36 7 12 37 5 12 38 5 13 39 1 13 40 0 13 41 2 14 42 8 14 43 9 14 44 3 15 45 1 15 46 5 15 47 6 17 51 4 17 52 11 17 53 0 18 54 9 18 55 11 18 56 6 19 57 10 19 58 8 19 59</p>
        </triangles>
        <triangles material="Material_004-material" count="2">
          <input semantic="VERTEX" source="#Cube_001-mesh-vertices" offset="0"/>
          <input semantic="NORMAL" source="#Cube_001-mesh-normals" offset="1"/>
          <input semantic="TEXCOORD" source="#Cube_001-mesh-map" offset="2" set="0"/>
          <p>10 6 18 9 6 19 8 6 20 10 16 48 11 16 49 9 16 50</p>
        </triangles>
      </mesh>
    </geometry>
  </library_geometries>
  <library_visual_scenes>
    <visual_scene id="Scene" name="Scene">
      <node id="Cube" name="Cube" type="NODE">
        <matrix sid="transform">1 0 0 0 0 1 0 0 0 0 1 0 0 0 0 1</matrix>
        <instance_geometry url="#Cube_001-mesh" name="Cube">
          <bind_material>
            <technique_common>
              <instance_material symbol="Material_001-material" target="#Material_001-material"/>
              <instance_material symbol="Material_004-material" target="#Material_004-material"/>
            </technique_common>
          </bind_material>
        </instance_geometry>
      </node>
    </visual_scene>
  </library_visual_scenes>
  <scene>
    <instance_visual_scene url="#Scene"/>
  </scene>
</COLLADA>