<?xml version="1.0" encoding="utf-8"?>
<COLLADA xmlns="http://www.collada.org/2005/11/COLLADASchema" version="1.4.1" xmlns:xsi="http://www.w3.org/2001/XMLSchema-instance">
  <asset>
    <contributor>
      <author>Blender User</author>
      <authoring_tool>Blender 4.5.2 LTS commit date:2025-08-19, commit time:15:00, hash:ab25eae04993</authoring_tool>
    </contributor>
    <created>2026-08-07T21:24:14</created>
    <modified>2026-08-07T21:24:14</modified>
    <unit name="meter" meter="1"/>
    <up_axis>Z_UP</up_axis>
  </asset>
  <library_effects>
    <effect id="Material_001-effect">
      <profile_COMMON>
        <technique sid="common">
          <lambert>
            <emission>
              <color sid="emission">0 0 0 1</color>
            </emission>
            <diffuse>
              <color sid="diffuse">0 0 0 1</color>
            </diffuse>
            <index_of_refraction>
              <float sid="ior">1.5</float>
            </index_of_refraction>
          </lambert>
        </technique>
      </profile_COMMON>
    </effect>
    <effect id="Material_002-effect">
      <profile_COMMON>
        <technique sid="common">
          <lambert>
            <emission>
              <color sid="emission">0 0 0 1</color>
            </emission>
            <diffuse>
              <color sid="diffuse">0.2158592 0 0.2158605 1</color>
            </diffuse>
            <index_of_refraction>
              <float sid="ior">1.5</float>
            </index_of_refraction>
          </lambert>
        </technique>
      </profile_COMMON>
    </effect>
  </library_effects>
  <library_images/>
  <library_materials>
    <material id="Material_001-material" name="Material.001">
      <instance_effect url="#Material_001-effect"/>
    </material>
    <material id="Material_002-material" name="Material.002">
      <instance_effect url="#Material_002-effect"/>
    </material>
  </library_materials>
  <library_geometries>
    <geometry id="Part_Studio_1__1_-mesh" name="Part Studio 1 (1)">
      <mesh>
        <source id="Part_Studio_1__1_-mesh-positions">
          <float_array id="Part_Studio_1__1_-mesh-positions-array" count="84">-0.08889997 0.06984996 -0.03429764 0.08889997 0.06984996 -0.03429764 -0.08889997 -0.06984996 -0.03429764 0.08889997 -0.06984996 -0.03429764 0.08889997 0.06984996 0.0419023 -0.08889997 0.06984996 0.0419023 0.08889997 -0.06984996 0.0419023 -0.08889997 -0.06984996 0.0419023 -0.07089996 -0.05184996 0.0419023 0.07089996 -0.05184996 0.0419023 -0.07089996 -0.05184996 0.01690226 0.07089996 -0.05184996 0.01690226 -0.07089996 0.05184996 0.0419023 -0.07089996 0.05184996 0.01690226 0.07089996 0.05184996 0.0419023 0.07089996 0.05184996 0.01690226 0.08889997 0.06984996 0.0419023 0.08889997 -0.06984996 0.0419023 -0.08889997 0.06984996 0.0419023 -0.08889997 -0.06984996 0.0419023 0.08889997 0.06984996 0.0419023 0.08889997 -0.06984996 0.0419023 -0.08889997 0.06984996 0.0419023 -0.08889997 -0.06984996 0.0419023 0.07057428 0.05225193 0.0419023 0.07057428 -0.05225193 0.0419023 -0.07057428 0.05225193 0.0419023 -0.07057428 -0.05225193 0.0419023</float_array>
          <technique_common>
            <accessor source="#Part_Studio_1__1_-mesh-positions-array" count="28" stride="3">
              <param name="X" type="float"/>
              <param name="Y" type="float"/>
              <param name="Z" type="float"/>
            </accessor>
          </technique_common>
        </source>
        <source id="Part_Studio_1__1_-mesh-normals">
          <float_array id="Part_Studio_1__1_-mesh-normals-array" count="132">0 0 -1 1 0 0 -1 0 0 0 -1 0 0 1 1.49012e-7 0 1 1.49012e-7 1 0 0 1 0 0 -1 0 0 -1 0 0 0 -1 -1.49012e-7 0 -1 -1.49012e-7 -3.38101e-7 0 1 0 1 0 0 0 1 0 0 1 0 0 1 0 0 1 0 0 1 0 0 1 0 0 1 0 0 1 0 0 1 0 -4.23376e-7 1 0 0 1 0 0 1 0 0 -1 1 0 0 -1 0 0 0 -1 0 0 0 1 0 1 0 0 0 1 0 0 1 0 0 1 0 0 1 0 0 1 0 0 1 0 0 1 0 0 1 0 0 1 0 -4.23376e-7 1 3.04134e-7 0 1 0 0 1</float_array>
          <technique_common>
            <accessor source="#Part_Studio_1__1_-mesh-normals-array" count="44" stride="3">
              <param name="X" type="float"/>
              <param name="Y" type="float"/>
              <param name="Z" type="float"/>
            </accessor>
          </technique_common>
        </source>
        <source id="Part_Studio_1__1_-mesh-map">
          <float_array id="Part_Studio_1__1_-mesh-map-array" count="264">0.3928572 0 0 0.5 0 0 0.6428573 0.8928572 0.4285715 0.5000001 0.6428573 0.5000001 0.6428573 0.8928572 0.8571431 0.5000001 0.8571431 0.8928572 0 1 0.2142857 0.5000001 0.2142857 1 0.8560181 0 0.8560181 0.3987627 0.7857144 0 0.8560181 0.3987627 0.7857144 0.3987627 0.7857144 0 0.9274469 0.5000001 0.9274468 0.7916199 0.8571431 0.5000001 0.9274468 0.7916199 0.8571431 0.7916199 0.8571431 0.5000001 0.9966256 0 0.9966256 0.2916198 0.9263218 0 0.9966256 0.2916198 0.9263218 0.2916198 0.9263218 0 0.9263219 0 0.9263219 0.3987627 0.8560182 0 0.9263219 0.3987627 0.8560181 0.3987627 0.8560182 0 0.7857143 0.5000001 0.3928572 0.5 0.3928572 0.5 0.2142857 1 0.4285715 0.5000001 0.4285715 1 0.7857143 0.5000001 0.3928572 0.5 0.3928572 0.5 0.3928572 0.5 0.3928572 0 0.3928572 0 0.3928572 0 0.7857144 0 0.7857144 0 0.7857144 0 0.7857143 0.5000001 0.7857143 0.5000001 0.7857143 0.5000001 0.3928572 0.5 0.3928572 0.5 0.3928572 0.5 0.3928572 0 0.3928572 0 0.3928572 0 0.7857144 0 0.7857144 0 0.7857144 0 0.7857143 0.5000001 0.7857143 0.5000001 0.7857144 0 0.3928572 0.5 0.3928572 0 0.3928572 0.5 0.3928572 0 0.3928572 0 0.3928572 0 0.7857144 0 0.7857144 0 0.7857144 0 0.7857143 0.5000001 0.7857143 0.5000001 0.3928572 0 0.3928571 0.5000001 0 0.5 0.6428573 0.8928572 0.4285715 0.8928572 0.4285715 0.5000001 0.6428573 0.8928572 0.6428573 0.5000001 0.8571431 0.5000001 0 1 0 0.5000001 0.2142857 0.5000001 0.7857143 0.5000001 0.7857143 0.5000001 0.3928572 0.5 0.2142857 1 0.2142858 0.5000001 0.4285715 0.5000001 0.7857143 0.5000001 0.7857143 0.5000001 0.3928572 0.5 0.3928572 0.5 0.3928572 0.5 0.3928572 0 0.3928572 0 0.3928572 0 0.7857144 0 0.7857144 0 0.7857144 0 0.7857143 0.5000001 0.7857143 0.5000001 0.7857143 0.5000001 0.3928572 0.5 0.3928572 0.5 0.3928572 0.5 0.3928572 0 0.3928572 0 0.3928572 0 0.7857144 0 0.7857144 0 0.7857144 0 0.7857143 0.5000001 0.7857144 0 0.7857143 0.5000001 0.3928572 0.5 0.3928572 0.5 0.3928572 0.5 0.3928572 0 0.3928572 0 0.3928572 0 0.7857144 0 0.7857144 0 0.7857144 0 0.7857143 0.5000001</float_array>
          <technique_common>
            <accessor source="#Part_Studio_1__1_-mesh-map-array" count="132" stride="2">
              <param name="S" type="float"/>
              <param name="T" type="float"/>
            </accessor>
          </technique_common>
        </source>
        <vertices id="Part_Studio_1__1_-mesh-vertices">
          <input semantic="POSITION" source="#Part_Studio_1__1_-mesh-positions"/>
        </vertices>
        <triangles material="Material_001-material" count="42">
          <input semantic="VERTEX" source="#Part_Studio_1__1_-mesh-vertices" offset="0"/>
          <input semantic="NORMAL" source="#Part_Studio_1__1_-mesh-normals" offset="1"/>
          <input semantic="TEXCOORD" source="#Part_Studio_1__1_-mesh-map" offset="2" set="0"/>
          <p>3 0 0 0 0 1 1 0 2 17 1 3 1 1 4 16 1 5 0 2 6 19 2 7 18 2 8 2 3 9 17 3 10 19 3 11 8 4 12 9 4 13 10 4 14 9 5 15 11 5 16 10 5 17 12 6 18 8 6 19 13 6 20 8 7 21 10 7 22 13 7 23 9 8 24 14 8 25 11 8 26 14 9 27 15 9 28 11 9 29 14 10 30 12 10 31 15 10 32 12 11 33 13 11 34 15 11 35 25 12 36 4 12 37 24 12 38 1 13 39 18 13 40 16 13 41 21 14 42 16 14 43 20 14 44 20 15 45 18 15 46 22 15 47 22 16 48 19 16 49 23 16 50 23 17 51 17 17 52 21 17 53 6 18 54 20 18 55 4 18 56 4 19 57 22 19 58 5 19 59 5 20 60 23 20 61 7 20 62 7 21 63 21 21 64 6 21 65 24 23 69 5 23 70 26 23 71 26 24 72 7 24 73 27 24 74 27 25 75 6 25 76 25 25 77 3 26 78 2 26 79 0 26 80 17 27 81 3 27 82 1 27 83 0 28 84 2 28 85 19 28 86 2 29 87 3 29 88 17 29 89 25 30 90 6 30 91 4 30 92 1 31 93 0 31 94 18 31 95 21 32 96 17 32 97 16 32 98 20 33 99 16 33 100 18 33 101 22 34 102 18 34 103 19 34 104 23 35 105 19 35 106 17 35 107 6 36 108 21 36 109 20 36 110 4 37 111 20 37 112 22 37 113 5 38 114 22 38 115 23 38 116 7 39 117 23 39 118 21 39 119 24 41 123 4 41 124 5 41 125 26 42 126 5 42 127 7 42 128 27 43 129 7 43 130 6 43 131</p>
        </triangles>
        <triangles material="Material_002-material" count="2">
          <input semantic="VERTEX" source="#Part_Studio_1__1_-mesh-vertices" offset="0"/>
          <input semantic="NORMAL" source="#Part_Studio_1__1_-mesh-normals" offset="1"/>
          <input semantic="TEXCOORD" source="#Part_Studio_1__1_-mesh-map" offset="2" set="0"/>
          <p>27 22 66 24 22 67 26 22 68 27 40 120 25 40 121 24 40 122</p>
        </triangles>
      </mesh>
    </geometry>
  </library_geometries>
  <library_visual_scenes>
    <visual_scene id="Scene" name="Scene">
      <node id="Part_Studio_1__1_" name="Part Studio 1 (1)" type="NODE">
        <matrix sid="transform">1 0 0 0 0 1 0 0 0 0 1 0 0 0 0 1</matrix>
        <instance_geometry url="#Part_Studio_1__1_-mesh" name="Part Studio 1 (1)">
          <bind_material>
            <technique_common>
              <instance_material symbol="Material_001-material" target="#Material_001-material"/>
              <instance_material symbol="Material_002-material" target="#Material_002-material"/>
            </technique_common>
          </bind_material>
        </instance_geometry>
      </node>
    </visual_scene>
  </library_visual_scenes>
  <scene>
    <instance_visual_scene url="#Scene"/>
  </scene>
</COLLADA>